HIERARCHY
ROOT mixamorig:Hips
{
	OFFSET 0.000000 201.639420 0.000000
	CHANNELS 6 Xposition Yposition Zposition Xrotation Yrotation Zrotation
	JOINT mixamorig:Spine
	{
		OFFSET 0.006200 19.524994 -2.481800
		CHANNELS 3 Xrotation Yrotation Zrotation
		JOINT mixamorig:Spine1
		{
			OFFSET -0.000900 22.835007 -2.825400
			CHANNELS 3 Xrotation Yrotation Zrotation
			JOINT mixamorig:Spine2
			{
				OFFSET -0.020600 26.552490 -3.193300
				CHANNELS 3 Xrotation Yrotation Zrotation
				JOINT mixamorig:Neck
				{
					OFFSET -0.060000 30.701813 1.352200
					CHANNELS 3 Xrotation Yrotation Zrotation
					JOINT mixamorig:Head
					{
						OFFSET -0.087200 22.547607 3.670900
						CHANNELS 3 Xrotation Yrotation Zrotation
						JOINT mixamorig:HeadTop_End
						{
							OFFSET -0.830600 40.355194 7.893500
							CHANNELS 3 Xrotation Yrotation Zrotation
							End Site
							{
								OFFSET 0.000000 30.592346 0.000000
							}
						}
						JOINT mixamorig:RightEye
						{
							OFFSET -6.302100 18.118591 16.197100
							CHANNELS 3 Xrotation Yrotation Zrotation
							End Site
							{
								OFFSET 0.000000 30.592346 0.000000
							}
						}
						JOINT mixamorig:LeftEye
						{
							OFFSET 6.741500 18.382690 16.401899
							CHANNELS 3 Xrotation Yrotation Zrotation
							End Site
							{
								OFFSET 0.000000 30.592346 0.000000
							}
						}
					}
				}
				JOINT mixamorig:LeftShoulder
				{
					OFFSET 11.924900 18.230499 1.425400
					CHANNELS 3 Xrotation Yrotation Zrotation
					JOINT mixamorig:LeftArm
					{
						OFFSET 25.435989 -0.697632 -5.229300
						CHANNELS 3 Xrotation Yrotation Zrotation
						JOINT mixamorig:LeftForeArm
						{
							OFFSET 54.684776 0.000000 0.000000
							CHANNELS 3 Xrotation Yrotation Zrotation
							JOINT mixamorig:LeftHand
							{
								OFFSET 55.098175 0.000000 0.000000
								CHANNELS 3 Xrotation Yrotation Zrotation
								JOINT mixamorig:LeftHandMiddle1
								{
									OFFSET 23.369751 0.000000 0.000000
									CHANNELS 3 Xrotation Yrotation Zrotation
									JOINT mixamorig:LeftHandMiddle2
									{
										OFFSET 6.378677 0.000000 0.000000
										CHANNELS 3 Xrotation Yrotation Zrotation
										JOINT mixamorig:LeftHandMiddle3
										{
											OFFSET 6.148331 0.000000 0.000000
											CHANNELS 3 Xrotation Yrotation Zrotation
											JOINT mixamorig:LeftHandMiddle4
											{
												OFFSET 6.582504 0.000000 0.000000
												CHANNELS 3 Xrotation Yrotation Zrotation
												End Site
												{
													OFFSET -1.168900 6.395691 1.028606
												}
											}
										}
									}
								}
								JOINT mixamorig:LeftHandThumb1
								{
									OFFSET 7.235672 -3.848206 5.434273
									CHANNELS 3 Xrotation Yrotation Zrotation
									JOINT mixamorig:LeftHandThumb2
									{
										OFFSET 6.568451 -3.792297 3.792300
										CHANNELS 3 Xrotation Yrotation Zrotation
										JOINT mixamorig:LeftHandThumb3
										{
											OFFSET 6.063080 -3.500519 3.500518
											CHANNELS 3 Xrotation Yrotation Zrotation
											JOINT mixamorig:LeftHandThumb4
											{
												OFFSET 4.793182 -2.767334 2.767349
												CHANNELS 3 Xrotation Yrotation Zrotation
												End Site
												{
													OFFSET 0.101639 6.054260 1.275483
												}
											}
										}
									}
								}
								JOINT mixamorig:LeftHandIndex1
								{
									OFFSET 23.101074 -0.309540 4.992809
									CHANNELS 3 Xrotation Yrotation Zrotation
									JOINT mixamorig:LeftHandIndex2
									{
										OFFSET 6.226883 0.000000 0.000000
										CHANNELS 3 Xrotation Yrotation Zrotation
										JOINT mixamorig:LeftHandIndex3
										{
											OFFSET 6.094330 0.000000 0.000000
											CHANNELS 3 Xrotation Yrotation Zrotation
											JOINT mixamorig:LeftHandIndex4
											{
												OFFSET 5.482605 0.000000 0.000000
												CHANNELS 3 Xrotation Yrotation Zrotation
												End Site
												{
													OFFSET -1.427902 5.233032 0.797164
												}
											}
										}
									}
								}
								JOINT mixamorig:LeftHandRing1
								{
									OFFSET 22.299240 0.021149 -3.964172
									CHANNELS 3 Xrotation Yrotation Zrotation
									JOINT mixamorig:LeftHandRing2
									{
										OFFSET 6.321869 0.000000 0.000000
										CHANNELS 3 Xrotation Yrotation Zrotation
										JOINT mixamorig:LeftHandRing3
										{
											OFFSET 5.899796 0.000000 0.000000
											CHANNELS 3 Xrotation Yrotation Zrotation
											JOINT mixamorig:LeftHandRing4
											{
												OFFSET 6.517899 0.000000 0.000000
												CHANNELS 3 Xrotation Yrotation Zrotation
												End Site
												{
													OFFSET -1.637299 6.232208 0.980890
												}
											}
										}
									}
								}
								JOINT mixamorig:LeftHandPinky1
								{
									OFFSET 20.463791 -0.302338 -8.562233
									CHANNELS 3 Xrotation Yrotation Zrotation
									JOINT mixamorig:LeftHandPinky2
									{
										OFFSET 6.908646 0.000000 0.000000
										CHANNELS 3 Xrotation Yrotation Zrotation
										JOINT mixamorig:LeftHandPinky3
										{
											OFFSET 4.622849 0.000000 0.000000
											CHANNELS 3 Xrotation Yrotation Zrotation
											JOINT mixamorig:LeftHandPinky4
											{
												OFFSET 5.216080 0.000000 0.000000
												CHANNELS 3 Xrotation Yrotation Zrotation
												End Site
												{
													OFFSET -0.606308 5.116241 0.814926
												}
											}
										}
									}
								}
							}
						}
					}
				}
				JOINT mixamorig:RightShoulder
				{
					OFFSET -12.001300 18.284088 1.348900
					CHANNELS 3 Xrotation Yrotation Zrotation
					JOINT mixamorig:RightArm
					{
						OFFSET -25.308500 -0.751312 -5.164599
						CHANNELS 3 Xrotation Yrotation Zrotation
						JOINT mixamorig:RightForeArm
						{
							OFFSET -54.684429 0.000000 0.000000
							CHANNELS 3 Xrotation Yrotation Zrotation
							JOINT mixamorig:RightHand
							{
								OFFSET -55.150291 0.000000 0.000000
								CHANNELS 3 Xrotation Yrotation Zrotation
								JOINT mixamorig:RightHandMiddle1
								{
									OFFSET -23.317566 0.000000 0.000000
									CHANNELS 3 Xrotation Yrotation Zrotation
									JOINT mixamorig:RightHandMiddle2
									{
										OFFSET -6.378403 0.000000 0.000000
										CHANNELS 3 Xrotation Yrotation Zrotation
										JOINT mixamorig:RightHandMiddle3
										{
											OFFSET -6.148193 0.000000 0.000000
											CHANNELS 3 Xrotation Yrotation Zrotation
											JOINT mixamorig:RightHandMiddle4
											{
												OFFSET -6.583389 0.000000 0.000000
												CHANNELS 3 Xrotation Yrotation Zrotation
												End Site
												{
													OFFSET 1.171692 6.395905 1.029786
												}
											}
										}
									}
								}
								JOINT mixamorig:RightHandThumb1
								{
									OFFSET -7.190521 -3.860474 5.435846
									CHANNELS 3 Xrotation Yrotation Zrotation
									JOINT mixamorig:RightHandThumb2
									{
										OFFSET -6.567429 -3.791718 3.791708
										CHANNELS 3 Xrotation Yrotation Zrotation
										JOINT mixamorig:RightHandThumb3
										{
											OFFSET -6.062469 -3.500153 3.500166
											CHANNELS 3 Xrotation Yrotation Zrotation
											JOINT mixamorig:RightHandThumb4
											{
												OFFSET -4.792618 -2.767029 2.767022
												CHANNELS 3 Xrotation Yrotation Zrotation
												End Site
												{
													OFFSET -0.100327 6.053253 1.276754
												}
											}
										}
									}
								}
								JOINT mixamorig:RightHandIndex1
								{
									OFFSET -23.048981 -0.310791 4.992554
									CHANNELS 3 Xrotation Yrotation Zrotation
									JOINT mixamorig:RightHandIndex2
									{
										OFFSET -6.227539 0.000000 0.000000
										CHANNELS 3 Xrotation Yrotation Zrotation
										JOINT mixamorig:RightHandIndex3
										{
											OFFSET -6.095047 0.000000 0.000000
											CHANNELS 3 Xrotation Yrotation Zrotation
											JOINT mixamorig:RightHandIndex4
											{
												OFFSET -5.484772 0.000000 0.000000
												CHANNELS 3 Xrotation Yrotation Zrotation
												End Site
												{
													OFFSET 1.420593 5.237305 0.797056
												}
											}
										}
									}
								}
								JOINT mixamorig:RightHandRing1
								{
									OFFSET -22.246323 0.020569 -3.963762
									CHANNELS 3 Xrotation Yrotation Zrotation
									JOINT mixamorig:RightHandRing2
									{
										OFFSET -6.322128 0.000000 0.000000
										CHANNELS 3 Xrotation Yrotation Zrotation
										JOINT mixamorig:RightHandRing3
										{
											OFFSET -5.900024 0.000000 0.000000
											CHANNELS 3 Xrotation Yrotation Zrotation
											JOINT mixamorig:RightHandRing4
											{
												OFFSET -6.518356 0.000000 0.000000
												CHANNELS 3 Xrotation Yrotation Zrotation
												End Site
												{
													OFFSET 1.636398 6.232697 0.982186
												}
											}
										}
									}
								}
								JOINT mixamorig:RightHandPinky1
								{
									OFFSET -20.411011 -0.303314 -8.561701
									CHANNELS 3 Xrotation Yrotation Zrotation
									JOINT mixamorig:RightHandPinky2
									{
										OFFSET -6.907349 0.000000 0.000000
										CHANNELS 3 Xrotation Yrotation Zrotation
										JOINT mixamorig:RightHandPinky3
										{
											OFFSET -4.623840 0.000000 0.000000
											CHANNELS 3 Xrotation Yrotation Zrotation
											JOINT mixamorig:RightHandPinky4
											{
												OFFSET -5.218353 0.000000 0.000000
												CHANNELS 3 Xrotation Yrotation Zrotation
												End Site
												{
													OFFSET 0.602097 5.118835 0.816273
												}
											}
										}
									}
								}
							}
						}
					}
				}
			}
		}
	}
	JOINT mixamorig:LeftUpLeg
	{
		OFFSET 18.168400 -13.561905 -0.039000
		CHANNELS 3 Xrotation Yrotation Zrotation
		JOINT mixamorig:LeftLeg
		{
			OFFSET 0.577358 -80.825211 -3.695000
			CHANNELS 3 Xrotation Yrotation Zrotation
			JOINT mixamorig:LeftFoot
			{
				OFFSET -0.577356 -83.370262 -6.520700
				CHANNELS 3 Xrotation Yrotation Zrotation
				JOINT mixamorig:LeftToeBase
				{
					OFFSET 0.750401 -20.798306 25.135401
					CHANNELS 3 Xrotation Yrotation Zrotation
					JOINT mixamorig:LeftToe_End
					{
						OFFSET -0.000500 0.001200 19.917799
						CHANNELS 3 Xrotation Yrotation Zrotation
						End Site
						{
							OFFSET 0.000000 19.917805 0.000000
						}
					}
				}
			}
		}
	}
	JOINT mixamorig:RightUpLeg
	{
		OFFSET -18.162500 -13.585098 -0.041000
		CHANNELS 3 Xrotation Yrotation Zrotation
		JOINT mixamorig:RightLeg
		{
			OFFSET -0.595024 -80.945297 -3.631900
			CHANNELS 3 Xrotation Yrotation Zrotation
			JOINT mixamorig:RightFoot
			{
				OFFSET 0.595024 -83.218193 -6.561200
				CHANNELS 3 Xrotation Yrotation Zrotation
				JOINT mixamorig:RightToeBase
				{
					OFFSET -0.753601 -20.807106 25.115000
					CHANNELS 3 Xrotation Yrotation Zrotation
					JOINT mixamorig:RightToe_End
					{
						OFFSET 0.000299 0.001700 19.918200
						CHANNELS 3 Xrotation Yrotation Zrotation
						End Site
						{
							OFFSET 0.000000 19.918203 0.000000
						}
					}
				}
			}
		}
	}
}
MOTION
Frames: 4
Frame Time: 0.033333
-1.032360 187.894745 -0.092054 -43.392024 -68.881536 -39.164076 12.609412 -1.500784 1.668531 17.038078 -0.550162 -0.234635 17.034244 -0.614654 -0.189931 0.531158 8.159119 0.666220 -10.762005 29.933406 8.470644 0.000000 0.000004 -0.000000 0.000000 0.000004 -0.000000 0.000000 0.000004 -0.000000 -37.650666 -7.233849 1.097007 -49.093248 -3.565843 -63.772438 0.000008 -62.082800 0.000001 -117.680253 1.816558 29.652645 0.730502 5.807539 -53.589791 3.384028 5.307171 -65.023852 0.282022 1.797459 -17.832393 -0.000000 0.000000 0.000004 4.709209 9.560380 3.111987 19.199626 -2.114645 7.939081 -4.519318 -9.394320 1.427226 0.000002 0.000002 0.000001 -0.133639 4.100137 -37.652545 2.927184 5.070315 -59.975591 0.506757 2.385334 -23.984672 0.000001 0.000001 -0.000000 -0.080327 5.773604 -61.615854 4.051568 5.568395 -72.059138 0.581041 2.545598 -25.711467 -0.000001 0.000000 -0.000002 -6.372720 4.775216 -73.246525 3.279687 5.257521 -63.890498 0.170396 1.404074 -13.838240 -0.000002 -0.000001 0.000002 -41.515645 -8.490262 -10.704076 -49.571174 56.671582 96.556909 0.000002 97.457183 0.000013 -51.418569 -18.375550 -27.120634 3.252806 -7.015857 52.796881 6.294294 -4.360550 110.601526 0.248719 -1.503068 18.790279 0.000000 0.000000 0.000003 8.765421 -5.501317 11.077820 21.559817 -18.094962 -18.241550 -0.783227 -49.830868 -32.620861 0.000001 -0.000001 0.000000 -1.005573 1.691390 13.353399 0.740823 -2.522159 32.733026 0.608955 -2.304317 29.601715 -0.000000 0.000000 -0.000000 -3.308262 -2.701893 57.557902 5.437934 -4.591380 99.661537 1.687098 -3.588789 50.345546 -0.000002 -0.000002 -0.000001 -4.140426 -3.358519 65.432802 4.042995 -4.616575 82.413575 2.301379 -4.018511 59.585320 0.000000 -0.000001 0.000001 -28.010568 35.747847 26.518023 37.203627 -5.109661 1.598746 -2.533959 1.341010 -1.676164 -1.138852 -0.000012 0.000003 -0.000000 -0.000002 -0.000000 -9.127221 15.358239 -2.298331 49.189704 4.279119 -0.924147 -21.816990 -4.251621 -3.586619 -2.481590 -0.064706 2.454789 -0.000000 -0.000001 -0.000000 
0.183834 188.461761 0.536198 -47.098386 -70.441558 -43.059179 12.388724 -1.210698 1.657074 16.995898 -0.533842 -0.261403 16.994499 -0.613045 -0.224284 0.535448 8.105494 0.657276 -10.480910 29.552572 8.526830 -0.000001 0.000000 0.000002 -0.000001 0.000000 0.000002 -0.000001 0.000000 0.000002 -37.648819 -7.312495 0.812653 -49.551714 -3.585521 -63.820092 0.000065 -60.569913 0.000057 -117.059730 2.657582 29.331790 0.741540 5.808896 -53.442139 3.386087 5.308125 -65.046070 0.282020 1.797457 -17.832383 -0.000001 0.000000 0.000002 4.709206 9.560381 3.111987 19.256636 -1.783106 7.926525 -4.495071 -9.465873 1.442095 0.000000 0.000001 0.000001 -0.143372 4.072169 -37.423081 2.928155 5.070877 -59.986553 0.507204 2.386344 -23.995484 -0.000000 0.000001 -0.000003 -0.085388 5.758044 -61.438952 4.047946 5.567227 -72.021811 0.579404 2.542200 -25.674579 0.000001 -0.000000 -0.000001 -6.439979 4.708465 -73.021942 3.280426 5.257889 -63.898571 0.170458 1.404348 -13.840969 -0.000001 0.000000 0.000001 -41.542259 -8.499316 -10.766999 -50.142130 56.750898 97.407302 0.000623 96.378429 -0.000638 -51.588395 -17.771703 -26.896216 3.220787 -6.997143 52.648440 6.295998 -4.359885 110.623820 0.248719 -1.503068 18.790277 0.000001 -0.000001 0.000001 8.675577 -5.363305 11.064548 21.713462 -17.943409 -18.346025 -0.725737 -49.840935 -32.551514 -0.000002 -0.000003 -0.000000 -0.988404 1.709130 13.123554 0.741304 -2.522899 32.743828 0.609386 -2.305096 29.612528 0.000001 -0.000000 0.000001 -3.314716 -2.673870 57.382823 5.434968 -4.591882 99.624388 1.684772 -3.586861 50.308506 -0.000001 0.000000 0.000000 -4.087063 -3.349536 65.202782 4.043042 -4.616586 82.414415 2.301573 -4.018643 59.588039 -0.000001 -0.000001 0.000001 -27.230750 36.041382 26.082175 36.114762 -3.054280 1.592042 -2.175430 1.339309 -1.967489 -1.138853 0.000003 0.000003 0.000000 -0.000002 -0.000000 -8.135118 17.519066 -2.071464 49.522140 -1.935912 -0.905788 -20.535425 -7.063268 -3.764594 -3.334729 -0.155939 3.774008 0.000000 0.000000 0.000000 
0.786552 189.074951 0.983322 -50.959007 -71.766976 -47.091941 12.133565 -0.950029 1.611121 16.951739 -0.513876 -0.291213 16.953218 -0.591834 -0.255442 0.570547 8.096277 0.586437 -10.391863 29.449252 8.709196 -0.000001 0.000003 0.000001 -0.000001 0.000003 0.000001 -0.000001 0.000003 0.000001 -37.646640 -7.184929 0.976645 -49.166686 -3.568771 -63.566720 -0.000035 -59.858268 -0.000019 -117.150298 2.575455 28.775618 0.742395 5.802511 -53.288016 3.386433 5.308286 -65.049813 0.282020 1.797456 -17.832388 -0.000000 0.000000 -0.000001 4.709208 9.560381 3.111987 19.308528 -1.576616 7.924614 -4.505890 -9.526674 1.463814 0.000004 0.000001 -0.000000 -0.135684 4.076199 -37.332209 2.942676 5.079208 -60.150717 0.514037 2.401620 -24.159035 -0.000000 0.000000 -0.000003 -0.120709 5.732051 -61.345808 4.052078 5.568560 -72.064370 0.581246 2.546018 -25.716040 -0.000001 0.000001 -0.000003 -6.491914 4.667803 -72.903137 3.279932 5.257646 -63.893148 0.170221 1.403383 -13.831242 -0.000001 0.000000 0.000001 -41.465535 -8.464145 -10.584497 -50.749634 56.956357 98.028378 -0.002188 95.154862 0.002159 -51.639334 -17.281844 -25.829735 3.197994 -6.985484 52.493422 6.296290 -4.359803 110.627577 0.248718 -1.503068 18.790279 0.000003 0.000000 -0.000002 8.606908 -5.257719 11.054555 21.790078 -17.860115 -18.392781 -0.724050 -49.845587 -32.549943 -0.000002 -0.000001 -0.000002 -0.986575 1.737268 13.035535 0.748520 -2.534124 32.907909 0.615993 -2.316661 29.776374 -0.000000 -0.000000 0.000001 -3.286636 -2.679198 57.288529 5.438322 -4.591341 99.666250 1.687388 -3.589015 50.350136 -0.000002 0.000000 0.000001 -4.042523 -3.352517 65.080098 4.042144 -4.616449 82.403070 2.300879 -4.018239 59.578265 0.000000 -0.000001 -0.000000 -26.316714 36.310836 25.714938 34.931455 -1.235660 1.589718 -1.799789 1.338099 -2.376202 -1.138852 0.000004 -0.000007 0.000000 -0.000002 -0.000000 -6.984786 17.880621 -3.422447 49.558791 -4.952848 0.659144 -18.938120 -9.207280 -4.341850 -4.279530 -0.289241 5.098133 -0.000000 -0.000000 -0.000001 
1.078709 189.763000 1.251648 -54.900835 -72.875632 -51.188156 11.849200 -0.720628 1.530338 16.906065 -0.490650 -0.323674 16.907353 -0.563929 -0.286181 0.613348 8.089557 0.519707 -10.304945 29.438430 8.738910 0.000000 -0.000001 -0.000000 0.000000 -0.000001 -0.000000 0.000000 -0.000001 -0.000000 -37.641538 -7.000339 1.092952 -48.583887 -3.759229 -63.242156 -0.000037 -59.351257 -0.000036 -117.420951 2.433387 28.269504 0.730005 5.789950 -53.214683 3.390805 5.310309 -65.097126 0.282020 1.797458 -17.832389 -0.000000 0.000001 0.000002 4.709207 9.560381 3.111987 19.317913 -1.491535 7.934415 -4.514357 -9.552737 1.475564 -0.000001 0.000001 -0.000000 -0.134372 4.071008 -37.228004 2.941901 5.078763 -60.141926 0.513678 2.400820 -24.150499 -0.000000 -0.000000 -0.000001 -0.134047 5.723050 -61.322238 4.047729 5.567158 -72.019570 0.579259 2.541893 -25.671261 -0.000001 0.000001 -0.000001 -6.527883 4.650628 -72.874423 3.265553 5.250601 -63.736129 0.166351 1.387558 -13.672192 0.000000 -0.000001 -0.000001 -41.422556 -8.452230 -10.483385 -51.231951 57.161659 98.777356 -0.001575 94.135668 0.001605 -51.584778 -16.810103 -24.953026 3.199843 -6.989584 52.419605 6.299870 -4.358452 110.674835 0.248718 -1.503067 18.790277 0.000000 -0.000000 0.000004 8.591348 -5.233854 11.052304 21.837592 -17.806100 -18.420067 -0.723805 -49.849009 -32.549997 -0.000003 0.000001 -0.000002 -0.981179 1.755770 12.932668 0.748151 -2.533540 32.899413 0.615627 -2.316058 29.767829 -0.000000 0.000000 -0.000002 -3.275263 -2.683262 57.264361 5.434704 -4.591940 99.621246 1.684582 -3.586691 50.305200 -0.000002 0.000000 -0.000001 -4.008589 -3.363919 65.049123 4.029142 -4.614723 82.241645 2.289685 -4.011653 59.418220 -0.000002 0.000000 0.000001 -25.257510 36.599278 25.321647 33.523217 0.380301 1.590024 -1.293926 1.332092 -2.814415 -1.138855 0.000022 -0.000001 -0.000000 -0.000002 -0.000000 -5.819885 17.499679 -4.884830 48.937499 -4.277628 2.316958 -17.623369 -11.116172 -3.253335 -4.811865 -0.425938 6.181508 -0.000000 0.000001 -0.000001 
